<mxfile host="app.diagrams.net" modified="2022-12-07T10:40:01.630Z" agent="5.0 (Windows NT 10.0; Win64; x64) AppleWebKit/537.36 (KHTML, like Gecko) Chrome/108.0.0.0 Safari/537.36" etag="NXhJVEaUyOClnU1jYcG4" version="20.6.0" type="github">
  <diagram name="Page-1" id="e7e014a7-5840-1c2e-5031-d8a46d1fe8dd">
    <mxGraphModel dx="1635" dy="902" grid="1" gridSize="10" guides="1" tooltips="1" connect="1" arrows="1" fold="1" page="1" pageScale="1" pageWidth="1169" pageHeight="826" background="none" math="0" shadow="0">
      <root>
        <mxCell id="0" />
        <mxCell id="1" parent="0" />
        <mxCell id="-dcpGkLNDZGGMNt4Jif_-41" value="" style="rounded=0;whiteSpace=wrap;html=1;" vertex="1" parent="1">
          <mxGeometry x="80" y="140" width="10" height="80" as="geometry" />
        </mxCell>
        <mxCell id="-dcpGkLNDZGGMNt4Jif_-42" value="" style="rounded=0;whiteSpace=wrap;html=1;" vertex="1" parent="1">
          <mxGeometry x="80" y="280" width="10" height="240" as="geometry" />
        </mxCell>
        <mxCell id="-dcpGkLNDZGGMNt4Jif_-43" value="" style="rounded=0;whiteSpace=wrap;html=1;" vertex="1" parent="1">
          <mxGeometry x="275" y="140" width="10" height="80" as="geometry" />
        </mxCell>
        <mxCell id="-dcpGkLNDZGGMNt4Jif_-44" value="" style="rounded=0;whiteSpace=wrap;html=1;" vertex="1" parent="1">
          <mxGeometry x="275" y="280" width="10" height="80" as="geometry" />
        </mxCell>
        <mxCell id="-dcpGkLNDZGGMNt4Jif_-45" value="" style="rounded=0;whiteSpace=wrap;html=1;" vertex="1" parent="1">
          <mxGeometry x="415" y="280" width="10" height="120" as="geometry" />
        </mxCell>
        <mxCell id="-dcpGkLNDZGGMNt4Jif_-46" value="" style="rounded=0;whiteSpace=wrap;html=1;" vertex="1" parent="1">
          <mxGeometry x="530" y="300" width="10" height="80" as="geometry" />
        </mxCell>
        <mxCell id="-dcpGkLNDZGGMNt4Jif_-47" value="" style="rounded=0;whiteSpace=wrap;html=1;" vertex="1" parent="1">
          <mxGeometry x="415" y="410" width="10" height="50" as="geometry" />
        </mxCell>
        <mxCell id="-dcpGkLNDZGGMNt4Jif_-48" value="" style="rounded=0;whiteSpace=wrap;html=1;" vertex="1" parent="1">
          <mxGeometry x="415" y="470" width="10" height="40" as="geometry" />
        </mxCell>
        <mxCell id="-dcpGkLNDZGGMNt4Jif_-49" value="" style="rounded=0;whiteSpace=wrap;html=1;" vertex="1" parent="1">
          <mxGeometry x="415" y="530" width="10" height="40" as="geometry" />
        </mxCell>
        <mxCell id="-dcpGkLNDZGGMNt4Jif_-50" value="" style="rounded=0;whiteSpace=wrap;html=1;" vertex="1" parent="1">
          <mxGeometry x="530" y="440" width="10" height="120" as="geometry" />
        </mxCell>
        <mxCell id="-dcpGkLNDZGGMNt4Jif_-51" value="" style="rounded=0;whiteSpace=wrap;html=1;" vertex="1" parent="1">
          <mxGeometry x="80" y="600" width="10" height="120" as="geometry" />
        </mxCell>
        <mxCell id="-dcpGkLNDZGGMNt4Jif_-52" value="" style="rounded=0;whiteSpace=wrap;html=1;" vertex="1" parent="1">
          <mxGeometry x="845" y="400" width="10" height="120" as="geometry" />
        </mxCell>
        <mxCell id="-dcpGkLNDZGGMNt4Jif_-53" value="" style="rounded=0;whiteSpace=wrap;html=1;" vertex="1" parent="1">
          <mxGeometry x="1000" y="540" width="10" height="90" as="geometry" />
        </mxCell>
        <mxCell id="-dcpGkLNDZGGMNt4Jif_-54" value="" style="rounded=0;whiteSpace=wrap;html=1;" vertex="1" parent="1">
          <mxGeometry x="530" y="590" width="10" height="100" as="geometry" />
        </mxCell>
        <mxCell id="-dcpGkLNDZGGMNt4Jif_-55" value="" style="rounded=0;whiteSpace=wrap;html=1;" vertex="1" parent="1">
          <mxGeometry x="690" y="680" width="10" height="20" as="geometry" />
        </mxCell>
        <mxCell id="-dcpGkLNDZGGMNt4Jif_-56" value="" style="rounded=0;whiteSpace=wrap;html=1;" vertex="1" parent="1">
          <mxGeometry x="690" y="720" width="10" height="30" as="geometry" />
        </mxCell>
        <mxCell id="-dcpGkLNDZGGMNt4Jif_-57" value="" style="rounded=0;whiteSpace=wrap;html=1;" vertex="1" parent="1">
          <mxGeometry x="845" y="725" width="10" height="25" as="geometry" />
        </mxCell>
        <mxCell id="-dcpGkLNDZGGMNt4Jif_-58" value="Менеджер по работе с заказом" style="shape=umlActor;verticalLabelPosition=bottom;verticalAlign=top;html=1;outlineConnect=0;" vertex="1" parent="1">
          <mxGeometry x="80" y="10" width="30" height="60" as="geometry" />
        </mxCell>
        <mxCell id="-dcpGkLNDZGGMNt4Jif_-59" value="Параметры работы с текстом" style="text;html=1;strokeColor=none;fillColor=none;align=center;verticalAlign=middle;whiteSpace=wrap;rounded=0;" vertex="1" parent="1">
          <mxGeometry x="230" y="70" width="100" height="30" as="geometry" />
        </mxCell>
        <mxCell id="-dcpGkLNDZGGMNt4Jif_-60" value="Добавление нового звказа" style="text;html=1;strokeColor=none;fillColor=none;align=center;verticalAlign=middle;whiteSpace=wrap;rounded=0;" vertex="1" parent="1">
          <mxGeometry x="380" y="70" width="80" height="30" as="geometry" />
        </mxCell>
        <mxCell id="-dcpGkLNDZGGMNt4Jif_-61" value="Менеджер по работе с заказами" style="text;html=1;strokeColor=none;fillColor=none;align=center;verticalAlign=middle;whiteSpace=wrap;rounded=0;" vertex="1" parent="1">
          <mxGeometry x="490" y="70" width="110" height="30" as="geometry" />
        </mxCell>
        <mxCell id="-dcpGkLNDZGGMNt4Jif_-62" value="Заказ" style="text;html=1;strokeColor=none;fillColor=none;align=center;verticalAlign=middle;whiteSpace=wrap;rounded=0;" vertex="1" parent="1">
          <mxGeometry x="660" y="70" width="60" height="30" as="geometry" />
        </mxCell>
        <mxCell id="-dcpGkLNDZGGMNt4Jif_-63" value="Клиент" style="text;html=1;strokeColor=none;fillColor=none;align=center;verticalAlign=middle;whiteSpace=wrap;rounded=0;" vertex="1" parent="1">
          <mxGeometry x="820" y="70" width="60" height="30" as="geometry" />
        </mxCell>
        <mxCell id="-dcpGkLNDZGGMNt4Jif_-64" value="Комплектующее изделие" style="text;html=1;strokeColor=none;fillColor=none;align=center;verticalAlign=middle;whiteSpace=wrap;rounded=0;" vertex="1" parent="1">
          <mxGeometry x="980" y="70" width="70" height="30" as="geometry" />
        </mxCell>
        <mxCell id="-dcpGkLNDZGGMNt4Jif_-65" value="" style="endArrow=classic;html=1;rounded=0;exitX=1;exitY=0;exitDx=0;exitDy=0;entryX=0;entryY=0;entryDx=0;entryDy=0;" edge="1" parent="1" source="-dcpGkLNDZGGMNt4Jif_-41" target="-dcpGkLNDZGGMNt4Jif_-43">
          <mxGeometry relative="1" as="geometry">
            <mxPoint x="530" y="350" as="sourcePoint" />
            <mxPoint x="630" y="350" as="targetPoint" />
          </mxGeometry>
        </mxCell>
        <mxCell id="-dcpGkLNDZGGMNt4Jif_-66" value="1. Ввод пароля" style="edgeLabel;resizable=0;html=1;align=center;verticalAlign=middle;" connectable="0" vertex="1" parent="-dcpGkLNDZGGMNt4Jif_-65">
          <mxGeometry relative="1" as="geometry">
            <mxPoint x="-13" as="offset" />
          </mxGeometry>
        </mxCell>
        <mxCell id="-dcpGkLNDZGGMNt4Jif_-67" value="" style="endArrow=none;dashed=1;html=1;rounded=0;" edge="1" parent="1">
          <mxGeometry width="50" height="50" relative="1" as="geometry">
            <mxPoint x="80" y="100" as="sourcePoint" />
            <mxPoint x="80" y="760" as="targetPoint" />
          </mxGeometry>
        </mxCell>
        <mxCell id="-dcpGkLNDZGGMNt4Jif_-68" value="" style="endArrow=none;dashed=1;html=1;rounded=0;startArrow=none;" edge="1" parent="1" source="-dcpGkLNDZGGMNt4Jif_-44">
          <mxGeometry width="50" height="50" relative="1" as="geometry">
            <mxPoint x="280" y="720" as="sourcePoint" />
            <mxPoint x="280" y="110" as="targetPoint" />
          </mxGeometry>
        </mxCell>
        <mxCell id="-dcpGkLNDZGGMNt4Jif_-69" value="" style="endArrow=none;dashed=1;html=1;rounded=0;startArrow=none;" edge="1" parent="1" source="-dcpGkLNDZGGMNt4Jif_-45">
          <mxGeometry width="50" height="50" relative="1" as="geometry">
            <mxPoint x="420" y="720" as="sourcePoint" />
            <mxPoint x="420" y="110" as="targetPoint" />
          </mxGeometry>
        </mxCell>
        <mxCell id="-dcpGkLNDZGGMNt4Jif_-70" value="" style="endArrow=none;dashed=1;html=1;rounded=0;startArrow=none;entryX=0.4;entryY=1;entryDx=0;entryDy=0;entryPerimeter=0;" edge="1" parent="1" source="-dcpGkLNDZGGMNt4Jif_-46" target="-dcpGkLNDZGGMNt4Jif_-61">
          <mxGeometry width="50" height="50" relative="1" as="geometry">
            <mxPoint x="540" y="720" as="sourcePoint" />
            <mxPoint x="530" y="110" as="targetPoint" />
          </mxGeometry>
        </mxCell>
        <mxCell id="-dcpGkLNDZGGMNt4Jif_-71" value="" style="endArrow=none;dashed=1;html=1;rounded=0;startArrow=none;" edge="1" parent="1" source="-dcpGkLNDZGGMNt4Jif_-55">
          <mxGeometry width="50" height="50" relative="1" as="geometry">
            <mxPoint x="690" y="720" as="sourcePoint" />
            <mxPoint x="690" y="110" as="targetPoint" />
          </mxGeometry>
        </mxCell>
        <mxCell id="-dcpGkLNDZGGMNt4Jif_-72" value="" style="endArrow=none;dashed=1;html=1;rounded=0;startArrow=none;" edge="1" parent="1" source="-dcpGkLNDZGGMNt4Jif_-52">
          <mxGeometry width="50" height="50" relative="1" as="geometry">
            <mxPoint x="850" y="720" as="sourcePoint" />
            <mxPoint x="850" y="110" as="targetPoint" />
          </mxGeometry>
        </mxCell>
        <mxCell id="-dcpGkLNDZGGMNt4Jif_-73" value="" style="endArrow=none;dashed=1;html=1;rounded=0;startArrow=none;" edge="1" parent="1" source="-dcpGkLNDZGGMNt4Jif_-53">
          <mxGeometry width="50" height="50" relative="1" as="geometry">
            <mxPoint x="1010" y="720" as="sourcePoint" />
            <mxPoint x="1005" y="110" as="targetPoint" />
          </mxGeometry>
        </mxCell>
        <mxCell id="-dcpGkLNDZGGMNt4Jif_-74" value="" style="endArrow=classic;html=1;rounded=0;exitX=1;exitY=0.1;exitDx=0;exitDy=0;exitPerimeter=0;entryX=1;entryY=0.9;entryDx=0;entryDy=0;entryPerimeter=0;" edge="1" parent="1" source="-dcpGkLNDZGGMNt4Jif_-43" target="-dcpGkLNDZGGMNt4Jif_-43">
          <mxGeometry relative="1" as="geometry">
            <mxPoint x="530" y="350" as="sourcePoint" />
            <mxPoint x="630" y="350" as="targetPoint" />
            <Array as="points">
              <mxPoint x="320" y="148" />
              <mxPoint x="320" y="212" />
            </Array>
          </mxGeometry>
        </mxCell>
        <mxCell id="-dcpGkLNDZGGMNt4Jif_-75" value="2. Проверка пароля" style="edgeLabel;resizable=0;html=1;align=center;verticalAlign=middle;" connectable="0" vertex="1" parent="-dcpGkLNDZGGMNt4Jif_-74">
          <mxGeometry relative="1" as="geometry">
            <mxPoint x="20" as="offset" />
          </mxGeometry>
        </mxCell>
        <mxCell id="-dcpGkLNDZGGMNt4Jif_-76" value="" style="endArrow=classic;html=1;rounded=0;exitX=1;exitY=0;exitDx=0;exitDy=0;" edge="1" parent="1" source="-dcpGkLNDZGGMNt4Jif_-42">
          <mxGeometry relative="1" as="geometry">
            <mxPoint x="530" y="350" as="sourcePoint" />
            <mxPoint x="280" y="280" as="targetPoint" />
          </mxGeometry>
        </mxCell>
        <mxCell id="-dcpGkLNDZGGMNt4Jif_-77" value="3. Выбор операции &quot;Добавить&quot;" style="edgeLabel;resizable=0;html=1;align=center;verticalAlign=middle;" connectable="0" vertex="1" parent="-dcpGkLNDZGGMNt4Jif_-76">
          <mxGeometry relative="1" as="geometry">
            <mxPoint x="-5" y="-10" as="offset" />
          </mxGeometry>
        </mxCell>
        <mxCell id="-dcpGkLNDZGGMNt4Jif_-78" value="" style="endArrow=none;dashed=1;html=1;rounded=0;" edge="1" parent="1" target="-dcpGkLNDZGGMNt4Jif_-44">
          <mxGeometry width="50" height="50" relative="1" as="geometry">
            <mxPoint x="280" y="760" as="sourcePoint" />
            <mxPoint x="280" y="110" as="targetPoint" />
          </mxGeometry>
        </mxCell>
        <mxCell id="-dcpGkLNDZGGMNt4Jif_-79" value="" style="endArrow=none;dashed=1;html=1;rounded=0;startArrow=none;" edge="1" parent="1" source="-dcpGkLNDZGGMNt4Jif_-47" target="-dcpGkLNDZGGMNt4Jif_-45">
          <mxGeometry width="50" height="50" relative="1" as="geometry">
            <mxPoint x="420" y="720" as="sourcePoint" />
            <mxPoint x="420" y="110" as="targetPoint" />
          </mxGeometry>
        </mxCell>
        <mxCell id="-dcpGkLNDZGGMNt4Jif_-80" value="" style="endArrow=classic;html=1;rounded=0;entryX=-0.4;entryY=0.083;entryDx=0;entryDy=0;entryPerimeter=0;" edge="1" parent="1" target="-dcpGkLNDZGGMNt4Jif_-45">
          <mxGeometry relative="1" as="geometry">
            <mxPoint x="290" y="290" as="sourcePoint" />
            <mxPoint x="630" y="350" as="targetPoint" />
            <Array as="points">
              <mxPoint x="360" y="290" />
            </Array>
          </mxGeometry>
        </mxCell>
        <mxCell id="-dcpGkLNDZGGMNt4Jif_-81" value="4. Отображение полей ввода" style="edgeLabel;resizable=0;html=1;align=center;verticalAlign=middle;" connectable="0" vertex="1" parent="-dcpGkLNDZGGMNt4Jif_-80">
          <mxGeometry relative="1" as="geometry">
            <mxPoint x="-1" y="-20" as="offset" />
          </mxGeometry>
        </mxCell>
        <mxCell id="-dcpGkLNDZGGMNt4Jif_-82" value="" style="endArrow=classic;html=1;rounded=0;exitX=1.1;exitY=0.463;exitDx=0;exitDy=0;exitPerimeter=0;entryX=-0.2;entryY=0.908;entryDx=0;entryDy=0;entryPerimeter=0;" edge="1" parent="1" source="-dcpGkLNDZGGMNt4Jif_-42" target="-dcpGkLNDZGGMNt4Jif_-45">
          <mxGeometry relative="1" as="geometry">
            <mxPoint x="530" y="350" as="sourcePoint" />
            <mxPoint x="630" y="350" as="targetPoint" />
          </mxGeometry>
        </mxCell>
        <mxCell id="-dcpGkLNDZGGMNt4Jif_-83" value="5. Выбор типа компьютера" style="edgeLabel;resizable=0;html=1;align=center;verticalAlign=middle;" connectable="0" vertex="1" parent="-dcpGkLNDZGGMNt4Jif_-82">
          <mxGeometry relative="1" as="geometry">
            <mxPoint x="-52" as="offset" />
          </mxGeometry>
        </mxCell>
        <mxCell id="-dcpGkLNDZGGMNt4Jif_-84" value="" style="endArrow=none;dashed=1;html=1;rounded=0;startArrow=none;" edge="1" parent="1" source="-dcpGkLNDZGGMNt4Jif_-50" target="-dcpGkLNDZGGMNt4Jif_-46">
          <mxGeometry width="50" height="50" relative="1" as="geometry">
            <mxPoint x="535" y="720" as="sourcePoint" />
            <mxPoint x="540" y="110" as="targetPoint" />
          </mxGeometry>
        </mxCell>
        <mxCell id="-dcpGkLNDZGGMNt4Jif_-85" value="" style="endArrow=classic;html=1;rounded=0;exitX=1;exitY=0.25;exitDx=0;exitDy=0;entryX=-0.4;entryY=0.113;entryDx=0;entryDy=0;entryPerimeter=0;" edge="1" parent="1" source="-dcpGkLNDZGGMNt4Jif_-45" target="-dcpGkLNDZGGMNt4Jif_-46">
          <mxGeometry relative="1" as="geometry">
            <mxPoint x="530" y="350" as="sourcePoint" />
            <mxPoint x="630" y="350" as="targetPoint" />
          </mxGeometry>
        </mxCell>
        <mxCell id="-dcpGkLNDZGGMNt4Jif_-86" value="6. Получение списка клиентов" style="edgeLabel;resizable=0;html=1;align=center;verticalAlign=middle;" connectable="0" vertex="1" parent="-dcpGkLNDZGGMNt4Jif_-85">
          <mxGeometry relative="1" as="geometry">
            <mxPoint x="34" y="-20" as="offset" />
          </mxGeometry>
        </mxCell>
        <mxCell id="-dcpGkLNDZGGMNt4Jif_-87" value="" style="endArrow=none;dashed=1;html=1;rounded=0;startArrow=none;" edge="1" parent="1" source="-dcpGkLNDZGGMNt4Jif_-48" target="-dcpGkLNDZGGMNt4Jif_-47">
          <mxGeometry width="50" height="50" relative="1" as="geometry">
            <mxPoint x="420" y="720" as="sourcePoint" />
            <mxPoint x="420" y="400" as="targetPoint" />
          </mxGeometry>
        </mxCell>
        <mxCell id="-dcpGkLNDZGGMNt4Jif_-88" value="" style="endArrow=classic;html=1;rounded=0;exitX=1;exitY=0.667;exitDx=0;exitDy=0;exitPerimeter=0;" edge="1" parent="1" source="-dcpGkLNDZGGMNt4Jif_-42">
          <mxGeometry relative="1" as="geometry">
            <mxPoint x="530" y="350" as="sourcePoint" />
            <mxPoint x="410" y="440" as="targetPoint" />
          </mxGeometry>
        </mxCell>
        <mxCell id="-dcpGkLNDZGGMNt4Jif_-89" value="10. Выбор клиента" style="edgeLabel;resizable=0;html=1;align=center;verticalAlign=middle;" connectable="0" vertex="1" parent="-dcpGkLNDZGGMNt4Jif_-88">
          <mxGeometry relative="1" as="geometry">
            <mxPoint x="-43" as="offset" />
          </mxGeometry>
        </mxCell>
        <mxCell id="-dcpGkLNDZGGMNt4Jif_-90" value="" style="endArrow=none;dashed=1;html=1;rounded=0;startArrow=none;" edge="1" parent="1" source="-dcpGkLNDZGGMNt4Jif_-49" target="-dcpGkLNDZGGMNt4Jif_-48">
          <mxGeometry width="50" height="50" relative="1" as="geometry">
            <mxPoint x="420" y="720" as="sourcePoint" />
            <mxPoint x="420" y="460" as="targetPoint" />
          </mxGeometry>
        </mxCell>
        <mxCell id="-dcpGkLNDZGGMNt4Jif_-91" value="" style="endArrow=classic;html=1;rounded=0;entryX=1;entryY=0.5;entryDx=0;entryDy=0;exitX=1;exitY=0.5;exitDx=0;exitDy=0;" edge="1" parent="1" source="-dcpGkLNDZGGMNt4Jif_-47" target="-dcpGkLNDZGGMNt4Jif_-48">
          <mxGeometry relative="1" as="geometry">
            <mxPoint x="430" y="440" as="sourcePoint" />
            <mxPoint x="630" y="350" as="targetPoint" />
            <Array as="points">
              <mxPoint x="450" y="435" />
              <mxPoint x="450" y="490" />
            </Array>
          </mxGeometry>
        </mxCell>
        <mxCell id="-dcpGkLNDZGGMNt4Jif_-92" value="9. Отображение&lt;br&gt;списка&lt;br&gt;клиентов" style="edgeLabel;resizable=0;html=1;align=center;verticalAlign=middle;" connectable="0" vertex="1" parent="-dcpGkLNDZGGMNt4Jif_-91">
          <mxGeometry relative="1" as="geometry">
            <mxPoint x="30" y="-3" as="offset" />
          </mxGeometry>
        </mxCell>
        <mxCell id="-dcpGkLNDZGGMNt4Jif_-93" value="" style="endArrow=none;dashed=1;html=1;rounded=0;" edge="1" parent="1" target="-dcpGkLNDZGGMNt4Jif_-49">
          <mxGeometry width="50" height="50" relative="1" as="geometry">
            <mxPoint x="420" y="760" as="sourcePoint" />
            <mxPoint x="420" y="510" as="targetPoint" />
          </mxGeometry>
        </mxCell>
        <mxCell id="-dcpGkLNDZGGMNt4Jif_-94" value="" style="endArrow=none;dashed=1;html=1;rounded=0;startArrow=none;" edge="1" parent="1" source="-dcpGkLNDZGGMNt4Jif_-54" target="-dcpGkLNDZGGMNt4Jif_-50">
          <mxGeometry width="50" height="50" relative="1" as="geometry">
            <mxPoint x="535" y="720" as="sourcePoint" />
            <mxPoint x="535" y="380" as="targetPoint" />
          </mxGeometry>
        </mxCell>
        <mxCell id="-dcpGkLNDZGGMNt4Jif_-95" value="" style="endArrow=classic;html=1;rounded=0;exitX=1;exitY=0.25;exitDx=0;exitDy=0;entryX=-0.4;entryY=0.833;entryDx=0;entryDy=0;entryPerimeter=0;" edge="1" parent="1" source="-dcpGkLNDZGGMNt4Jif_-49" target="-dcpGkLNDZGGMNt4Jif_-50">
          <mxGeometry relative="1" as="geometry">
            <mxPoint x="530" y="330" as="sourcePoint" />
            <mxPoint x="520" y="540" as="targetPoint" />
          </mxGeometry>
        </mxCell>
        <mxCell id="-dcpGkLNDZGGMNt4Jif_-96" value="11. Получение&lt;br&gt;списка&lt;br&gt;комплектующих" style="edgeLabel;resizable=0;html=1;align=center;verticalAlign=middle;" connectable="0" vertex="1" parent="-dcpGkLNDZGGMNt4Jif_-95">
          <mxGeometry relative="1" as="geometry">
            <mxPoint x="-3" y="10" as="offset" />
          </mxGeometry>
        </mxCell>
        <mxCell id="-dcpGkLNDZGGMNt4Jif_-97" value="" style="endArrow=none;dashed=1;html=1;rounded=0;startArrow=none;" edge="1" parent="1" source="-dcpGkLNDZGGMNt4Jif_-57" target="-dcpGkLNDZGGMNt4Jif_-52">
          <mxGeometry width="50" height="50" relative="1" as="geometry">
            <mxPoint x="850" y="760" as="sourcePoint" />
            <mxPoint x="850" y="110" as="targetPoint" />
          </mxGeometry>
        </mxCell>
        <mxCell id="-dcpGkLNDZGGMNt4Jif_-98" value="" style="endArrow=classic;html=1;rounded=0;exitX=1.1;exitY=0.1;exitDx=0;exitDy=0;exitPerimeter=0;" edge="1" parent="1" source="-dcpGkLNDZGGMNt4Jif_-50">
          <mxGeometry relative="1" as="geometry">
            <mxPoint x="530" y="320" as="sourcePoint" />
            <mxPoint x="840" y="452" as="targetPoint" />
          </mxGeometry>
        </mxCell>
        <mxCell id="-dcpGkLNDZGGMNt4Jif_-99" value="7. Получение списка клиентов" style="edgeLabel;resizable=0;html=1;align=center;verticalAlign=middle;" connectable="0" vertex="1" parent="-dcpGkLNDZGGMNt4Jif_-98">
          <mxGeometry relative="1" as="geometry">
            <mxPoint x="-6" y="9" as="offset" />
          </mxGeometry>
        </mxCell>
        <mxCell id="-dcpGkLNDZGGMNt4Jif_-100" value="" style="endArrow=none;dashed=1;html=1;rounded=0;entryX=0;entryY=0.15;entryDx=0;entryDy=0;entryPerimeter=0;startArrow=none;" edge="1" parent="1" target="-dcpGkLNDZGGMNt4Jif_-52">
          <mxGeometry width="50" height="50" relative="1" as="geometry">
            <mxPoint x="680" y="418" as="sourcePoint" />
            <mxPoint x="610" y="300" as="targetPoint" />
          </mxGeometry>
        </mxCell>
        <mxCell id="-dcpGkLNDZGGMNt4Jif_-101" value="8. Список клиентов" style="text;html=1;strokeColor=none;fillColor=none;align=center;verticalAlign=middle;whiteSpace=wrap;rounded=0;" vertex="1" parent="1">
          <mxGeometry x="570" y="400" width="110" height="30" as="geometry" />
        </mxCell>
        <mxCell id="-dcpGkLNDZGGMNt4Jif_-102" value="" style="endArrow=none;dashed=1;html=1;rounded=0;" edge="1" parent="1">
          <mxGeometry width="50" height="50" relative="1" as="geometry">
            <mxPoint x="430" y="420" as="sourcePoint" />
            <mxPoint x="570" y="420" as="targetPoint" />
          </mxGeometry>
        </mxCell>
        <mxCell id="-dcpGkLNDZGGMNt4Jif_-103" value="" style="endArrow=none;dashed=1;html=1;rounded=0;" edge="1" parent="1" target="-dcpGkLNDZGGMNt4Jif_-53">
          <mxGeometry width="50" height="50" relative="1" as="geometry">
            <mxPoint x="1005" y="760" as="sourcePoint" />
            <mxPoint x="1010" y="110" as="targetPoint" />
          </mxGeometry>
        </mxCell>
        <mxCell id="-dcpGkLNDZGGMNt4Jif_-104" value="" style="endArrow=classic;html=1;rounded=0;entryX=-0.4;entryY=0.15;entryDx=0;entryDy=0;entryPerimeter=0;exitX=1.5;exitY=0.933;exitDx=0;exitDy=0;exitPerimeter=0;" edge="1" parent="1" source="-dcpGkLNDZGGMNt4Jif_-50" target="-dcpGkLNDZGGMNt4Jif_-53">
          <mxGeometry relative="1" as="geometry">
            <mxPoint x="530" y="310" as="sourcePoint" />
            <mxPoint x="630" y="310" as="targetPoint" />
          </mxGeometry>
        </mxCell>
        <mxCell id="-dcpGkLNDZGGMNt4Jif_-105" value="12. Получение списка комплектующих" style="edgeLabel;resizable=0;html=1;align=center;verticalAlign=middle;" connectable="0" vertex="1" parent="-dcpGkLNDZGGMNt4Jif_-104">
          <mxGeometry relative="1" as="geometry">
            <mxPoint y="-2" as="offset" />
          </mxGeometry>
        </mxCell>
        <mxCell id="-dcpGkLNDZGGMNt4Jif_-106" value="" style="endArrow=none;dashed=1;html=1;rounded=0;" edge="1" parent="1" target="-dcpGkLNDZGGMNt4Jif_-54">
          <mxGeometry width="50" height="50" relative="1" as="geometry">
            <mxPoint x="535" y="760" as="sourcePoint" />
            <mxPoint x="535" y="560" as="targetPoint" />
          </mxGeometry>
        </mxCell>
        <mxCell id="-dcpGkLNDZGGMNt4Jif_-107" value="" style="endArrow=classic;html=1;rounded=0;exitX=1.2;exitY=0.092;exitDx=0;exitDy=0;exitPerimeter=0;" edge="1" parent="1" source="-dcpGkLNDZGGMNt4Jif_-51">
          <mxGeometry relative="1" as="geometry">
            <mxPoint x="530" y="400" as="sourcePoint" />
            <mxPoint x="530" y="611" as="targetPoint" />
          </mxGeometry>
        </mxCell>
        <mxCell id="-dcpGkLNDZGGMNt4Jif_-108" value="15. Выбор необходимых комплектующих" style="edgeLabel;resizable=0;html=1;align=center;verticalAlign=middle;" connectable="0" vertex="1" parent="-dcpGkLNDZGGMNt4Jif_-107">
          <mxGeometry relative="1" as="geometry">
            <mxPoint x="-11" y="-1" as="offset" />
          </mxGeometry>
        </mxCell>
        <mxCell id="-dcpGkLNDZGGMNt4Jif_-109" value="" style="endArrow=classic;html=1;rounded=0;exitX=1;exitY=0.5;exitDx=0;exitDy=0;entryX=0;entryY=0.69;entryDx=0;entryDy=0;entryPerimeter=0;" edge="1" parent="1" source="-dcpGkLNDZGGMNt4Jif_-51" target="-dcpGkLNDZGGMNt4Jif_-54">
          <mxGeometry relative="1" as="geometry">
            <mxPoint x="530" y="400" as="sourcePoint" />
            <mxPoint x="520" y="660" as="targetPoint" />
          </mxGeometry>
        </mxCell>
        <mxCell id="-dcpGkLNDZGGMNt4Jif_-110" value="16. Сохранить заказ" style="edgeLabel;resizable=0;html=1;align=center;verticalAlign=middle;" connectable="0" vertex="1" parent="-dcpGkLNDZGGMNt4Jif_-109">
          <mxGeometry relative="1" as="geometry">
            <mxPoint x="12" y="1" as="offset" />
          </mxGeometry>
        </mxCell>
        <mxCell id="-dcpGkLNDZGGMNt4Jif_-111" value="" style="endArrow=classic;html=1;rounded=0;exitX=0.9;exitY=0.34;exitDx=0;exitDy=0;exitPerimeter=0;entryX=1;entryY=0.75;entryDx=0;entryDy=0;" edge="1" parent="1" source="-dcpGkLNDZGGMNt4Jif_-54" target="-dcpGkLNDZGGMNt4Jif_-54">
          <mxGeometry relative="1" as="geometry">
            <mxPoint x="530" y="400" as="sourcePoint" />
            <mxPoint x="630" y="400" as="targetPoint" />
            <Array as="points">
              <mxPoint x="580" y="624" />
              <mxPoint x="580" y="665" />
            </Array>
          </mxGeometry>
        </mxCell>
        <mxCell id="-dcpGkLNDZGGMNt4Jif_-112" value="14. Отображение&lt;br&gt;списка&lt;br&gt;комплектующих" style="edgeLabel;resizable=0;html=1;align=center;verticalAlign=middle;" connectable="0" vertex="1" parent="-dcpGkLNDZGGMNt4Jif_-111">
          <mxGeometry relative="1" as="geometry">
            <mxPoint x="20" as="offset" />
          </mxGeometry>
        </mxCell>
        <mxCell id="-dcpGkLNDZGGMNt4Jif_-113" value="" style="endArrow=none;dashed=1;html=1;rounded=0;startArrow=none;" edge="1" parent="1" source="-dcpGkLNDZGGMNt4Jif_-56" target="-dcpGkLNDZGGMNt4Jif_-55">
          <mxGeometry width="50" height="50" relative="1" as="geometry">
            <mxPoint x="695" y="760" as="sourcePoint" />
            <mxPoint x="690" y="110" as="targetPoint" />
          </mxGeometry>
        </mxCell>
        <mxCell id="-dcpGkLNDZGGMNt4Jif_-114" value="" style="endArrow=classic;html=1;rounded=0;exitX=0.75;exitY=1;exitDx=0;exitDy=0;entryX=0;entryY=0.5;entryDx=0;entryDy=0;" edge="1" parent="1" source="-dcpGkLNDZGGMNt4Jif_-54" target="-dcpGkLNDZGGMNt4Jif_-55">
          <mxGeometry relative="1" as="geometry">
            <mxPoint x="530" y="390" as="sourcePoint" />
            <mxPoint x="630" y="390" as="targetPoint" />
          </mxGeometry>
        </mxCell>
        <mxCell id="-dcpGkLNDZGGMNt4Jif_-115" value="17. Передача&lt;br&gt;управления" style="edgeLabel;resizable=0;html=1;align=center;verticalAlign=middle;" connectable="0" vertex="1" parent="-dcpGkLNDZGGMNt4Jif_-114">
          <mxGeometry relative="1" as="geometry">
            <mxPoint as="offset" />
          </mxGeometry>
        </mxCell>
        <mxCell id="-dcpGkLNDZGGMNt4Jif_-116" value="" style="endArrow=none;dashed=1;html=1;rounded=0;" edge="1" parent="1" target="-dcpGkLNDZGGMNt4Jif_-56">
          <mxGeometry width="50" height="50" relative="1" as="geometry">
            <mxPoint x="695" y="760" as="sourcePoint" />
            <mxPoint x="695" y="700" as="targetPoint" />
          </mxGeometry>
        </mxCell>
        <mxCell id="-dcpGkLNDZGGMNt4Jif_-117" value="" style="endArrow=none;dashed=1;html=1;rounded=0;" edge="1" parent="1" target="-dcpGkLNDZGGMNt4Jif_-57">
          <mxGeometry width="50" height="50" relative="1" as="geometry">
            <mxPoint x="850" y="760" as="sourcePoint" />
            <mxPoint x="850" y="520" as="targetPoint" />
          </mxGeometry>
        </mxCell>
        <mxCell id="-dcpGkLNDZGGMNt4Jif_-118" value="" style="endArrow=classic;html=1;rounded=0;entryX=0;entryY=0.5;entryDx=0;entryDy=0;" edge="1" parent="1" target="-dcpGkLNDZGGMNt4Jif_-57">
          <mxGeometry relative="1" as="geometry">
            <mxPoint x="700" y="738" as="sourcePoint" />
            <mxPoint x="630" y="480" as="targetPoint" />
          </mxGeometry>
        </mxCell>
        <mxCell id="-dcpGkLNDZGGMNt4Jif_-119" value="18. Сохранение" style="edgeLabel;resizable=0;html=1;align=center;verticalAlign=middle;" connectable="0" vertex="1" parent="-dcpGkLNDZGGMNt4Jif_-118">
          <mxGeometry relative="1" as="geometry">
            <mxPoint x="-13" as="offset" />
          </mxGeometry>
        </mxCell>
        <mxCell id="-dcpGkLNDZGGMNt4Jif_-120" value="Работа с заказом пользователя." style="text;html=1;strokeColor=none;fillColor=none;align=center;verticalAlign=middle;whiteSpace=wrap;rounded=0;" vertex="1" parent="1">
          <mxGeometry x="450" width="150" height="30" as="geometry" />
        </mxCell>
        <mxCell id="-dcpGkLNDZGGMNt4Jif_-121" value="&lt;span style=&quot;font-size: 12px;&quot;&gt;13. Список комплектующих&lt;/span&gt;" style="endArrow=open;endSize=12;dashed=1;html=1;rounded=0;entryX=1.255;entryY=0.101;entryDx=0;entryDy=0;entryPerimeter=0;exitX=-0.29;exitY=0.678;exitDx=0;exitDy=0;exitPerimeter=0;" edge="1" parent="1" source="-dcpGkLNDZGGMNt4Jif_-53" target="-dcpGkLNDZGGMNt4Jif_-54">
          <mxGeometry x="-0.0448" y="-1" width="160" relative="1" as="geometry">
            <mxPoint x="990" y="600" as="sourcePoint" />
            <mxPoint x="660" y="470" as="targetPoint" />
            <mxPoint as="offset" />
          </mxGeometry>
        </mxCell>
      </root>
    </mxGraphModel>
  </diagram>
</mxfile>
